<svg xmlns="http://www.w3.org/2000/svg" xmlns:xlink="http://www.w3.org/1999/xlink" viewBox="0 0 58.55 44.01"><defs><style>.cls-1{fill:url(#radial-gradient);}.cls-2{fill:url(#radial-gradient-4);}.cls-3{fill:url(#radial-gradient-5);}.cls-4{fill:url(#radial-gradient-6);}</style><radialGradient id="radial-gradient" cx="29.27" cy="22" fx="35.891283556800836" r="50.3" gradientTransform="translate(64.26 17.41) rotate(138.58) scale(1 0.9)" gradientUnits="userSpaceOnUse"><stop offset="0.03" stop-color="#e2e9ff"/><stop offset="0.21" stop-color="#dee7fe"/><stop offset="0.41" stop-color="#d1e3fa"/><stop offset="0.61" stop-color="#bbdbf3"/><stop offset="0.81" stop-color="#9ecfea"/><stop offset="1" stop-color="#7ac2df"/></radialGradient><radialGradient id="radial-gradient-4" cx="29.34" cy="23.84" fx="49.47750268734312" r="20.16" gradientUnits="userSpaceOnUse"><stop offset="0.03" stop-color="#e2e900"/><stop offset="0.3" stop-color="#e5e504"/><stop offset="0.59" stop-color="#ecd80f"/><stop offset="0.88" stop-color="#f9c321"/><stop offset="1" stop-color="#ffb82a"/></radialGradient><radialGradient id="radial-gradient-5" cx="35.6" cy="31.94" fx="35.59536305756592" r="34.75" gradientTransform="translate(81.21 29.83) rotate(138.58) scale(1 0.9)" xlink:href="#radial-gradient"/><radialGradient id="radial-gradient-6" cx="22.95" cy="10.64" fx="22.95207144768756" r="34.75" gradientTransform="translate(46.47 2.6) rotate(138.58) scale(1 0.9)" xlink:href="#radial-gradient"/></defs><title>Cloudy_2</title><g id="Layer_2" data-name="Layer 2"><g id="Weather_Icons" data-name="Weather Icons"><g id="Cloudy"><circle class="cls-1" cx="29.34" cy="23.84" r="20.16"/><path class="cls-1" d="M24.93,30.56C23.83,21.19,51.71,15,50.33,32c4.41-2.9,11.46.28,6.54,7.87C55.44,43,12.64,44,12.64,39.82,13.33,32.64,22,29.09,24.93,30.56Z"/><path class="cls-1" d="M12.28,9.27C11.18-.11,39.07-6.32,37.69,10.66c4.41-2.9,11.46.28,6.54,7.87C42.8,21.7,0,22.67,0,18.53.69,11.35,9.32,7.8,12.28,9.27Z"/><circle class="cls-2" cx="29.34" cy="23.84" r="20.16"/><path class="cls-3" d="M24.93,30.56C23.83,21.19,51.71,15,50.33,32c4.41-2.9,11.46.28,6.54,7.87C55.44,43,12.64,44,12.64,39.82,13.33,32.64,22,29.09,24.93,30.56Z"/><path class="cls-4" d="M12.28,9.27C11.18-.11,39.07-6.32,37.69,10.66c4.41-2.9,11.46.28,6.54,7.87C42.8,21.7,0,22.67,0,18.53.69,11.35,9.32,7.8,12.28,9.27Z"/></g></g></g></svg>