<svg xmlns="http://www.w3.org/2000/svg" xmlns:xlink="http://www.w3.org/1999/xlink" viewBox="0 0 68.98 45.33"><defs><style>.cls-1{fill:url(#radial-gradient);}.cls-2{fill:url(#linear-gradient);}.cls-3{fill:url(#linear-gradient-2);}</style><radialGradient id="radial-gradient" cx="27.83" cy="-8.01" fy="-21.897444306467584" r="50.24" gradientTransform="translate(8.53 13.34) rotate(-33.12) scale(1 0.92)" gradientUnits="userSpaceOnUse"><stop offset="0" stop-color="#fff"/><stop offset="0.09" stop-color="#f8f8f8"/><stop offset="0.21" stop-color="#e4e4e4"/><stop offset="0.36" stop-color="#c3c3c3"/><stop offset="0.53" stop-color="#969696"/><stop offset="0.54" stop-color="#949494"/><stop offset="0.55" stop-color="#929292"/><stop offset="0.8" stop-color="#505050"/><stop offset="0.91" stop-color="#363636"/></radialGradient><linearGradient id="linear-gradient" x1="45.34" y1="27.3" x2="33.31" y2="6.47" gradientUnits="userSpaceOnUse"><stop offset="0" stop-color="#7ac2df"/><stop offset="0.08" stop-color="#8bc8e4"/><stop offset="0.5" stop-color="#e2e9ff"/><stop offset="0.72" stop-color="#b6d9f2"/><stop offset="1" stop-color="#7ac2df"/></linearGradient><linearGradient id="linear-gradient-2" x1="29.34" y1="33.3" x2="17.31" y2="12.47" xlink:href="#linear-gradient"/></defs><title>Rain_1</title><g id="Layer_2" data-name="Layer 2"><g id="Weather_Icons" data-name="Weather Icons"><g id="Rain"><path id="Stormy_Cloud" data-name="Stormy Cloud" class="cls-1" d="M18.46,13.93C16.8-.16,58.71-9.5,56.64,16c6.63-4.36,17.22.41,9.83,11.83C64.31,32.62,0,34.07,0,27.85,1,17.06,14,11.72,18.46,13.93Z"/><path id="Rain_Drop" data-name="Rain Drop" class="cls-2" d="M46,12.33s-12,27,0,27C56.83,39.33,46,12.33,46,12.33Z"/><path id="Rain_Drop-2" data-name="Rain Drop" class="cls-3" d="M30,18.33s-12,27,0,27C40.83,45.33,30,18.33,30,18.33Z"/></g></g></g></svg>