<svg xmlns="http://www.w3.org/2000/svg" xmlns:xlink="http://www.w3.org/1999/xlink" viewBox="0 0 53.98 45.22"><defs><style>.cls-1{fill:#c1b300;}.cls-2{fill:url(#radial-gradient);}.cls-3{fill:url(#linear-gradient);}.cls-4{fill:url(#linear-gradient-2);}</style><radialGradient id="radial-gradient" cx="21.77" cy="-6.27" fy="-17.135992855421986" r="39.32" gradientTransform="translate(6.68 10.44) rotate(-33.12) scale(1 0.92)" gradientUnits="userSpaceOnUse"><stop offset="0" stop-color="#fff"/><stop offset="0.09" stop-color="#f8f8f8"/><stop offset="0.21" stop-color="#e4e4e4"/><stop offset="0.36" stop-color="#c3c3c3"/><stop offset="0.53" stop-color="#969696"/><stop offset="0.54" stop-color="#949494"/><stop offset="0.55" stop-color="#929292"/><stop offset="0.8" stop-color="#505050"/><stop offset="0.91" stop-color="#363636"/></radialGradient><linearGradient id="linear-gradient" x1="38.39" y1="20.61" x2="29" y2="4.35" gradientUnits="userSpaceOnUse"><stop offset="0" stop-color="#7ac2df"/><stop offset="0.08" stop-color="#8bc8e4"/><stop offset="0.5" stop-color="#e2e9ff"/><stop offset="0.72" stop-color="#b6d9f2"/><stop offset="1" stop-color="#7ac2df"/></linearGradient><linearGradient id="linear-gradient-2" x1="27.36" y1="22.91" x2="18.02" y2="6.74" xlink:href="#linear-gradient"/></defs><title>Thunderstorm_2</title><g id="Layer_2" data-name="Layer 2"><g id="Weather_Icons" data-name="Weather Icons"><g id="Thunderstorm"><polygon id="Lightning_Bolt" data-name="Lightning Bolt" class="cls-1" points="14.87 15.94 21.91 15.94 14.09 26.94 22.69 26.94 6.78 45.22 11.74 31.94 3.13 31.94 14.87 15.94"/><path id="Stormy_Cloud" data-name="Stormy Cloud" class="cls-2" d="M14.44,10.9c-1.29-11,31.5-18.33,29.88,1.64,5.19-3.41,13.48.32,7.69,9.25-1.68,3.73-52,4.87-52,0C.81,13.35,11,9.17,14.44,10.9Z"/><path id="Rain_Drop" data-name="Rain Drop" class="cls-3" d="M39,8.87S29,30,39,30C47,30,39,8.87,39,8.87Z"/><path id="Rain_Drop-2" data-name="Rain Drop" class="cls-4" d="M28,11.22S18,32.35,28,32.35C35,32.35,28,11.22,28,11.22Z"/></g></g></g></svg>